<svg xmlns="http://www.w3.org/2000/svg" viewBox="0 0 24 24" fill="#f3e6f8">
  <path d="M11.996 0A12.001 12.001 0 0 0 0 12.001c0 2.128.552 4.195 1.6 6.002L.004 24l6.155-1.579A11.968 11.968 0 0 0 12 24c6.623 0 12-5.378 12-12.001C24 5.378 18.623 0 11.996 0Zm6.046 17.3c-.255.72-.94 1.258-1.688 1.402-.544.103-1.246.177-3.466-.75-2.695-1.124-4.42-3.87-4.553-4.047-.133-.178-1.085-1.447-1.085-2.76 0-1.313.682-1.959.923-2.228.24-.268.522-.335.696-.335.174 0 .348 0 .497.008.163.008.38.06.593.578.225.545.717 1.748.78 1.878.062.13.103.284.02.45-.082.167-.123.27-.245.412-.123.143-.257.307-.367.42-.121.121-.247.253-.108.494.138.24.615 1.018 1.328 1.652.92.818 1.68 1.07 1.91 1.189.23.12.366.103.504-.047.137-.15.592-.693.754-.932.162-.239.324-.199.535-.121.21.078 1.332.628 1.56.741.228.113.38.169.435.263.055.094.055.545-.2 1.266Z"/>
</svg>
